<svg xmlns="http://www.w3.org/2000/svg" xmlns:xlink="http://www.w3.org/1999/xlink" viewBox="0 0 48 48"><defs><style>.cls-1{fill:url(#linear-gradient);}.cls-2{fill:url(#linear-gradient-2);}.cls-3{fill:url(#linear-gradient-3);}.cls-4{fill:url(#linear-gradient-4);}</style><linearGradient id="linear-gradient" x1="24.63" y1="79.25" x2="24.63" y2="-19.86" gradientUnits="userSpaceOnUse"><stop offset="0" stop-color="#fff"/><stop offset="0.52" stop-color="#cce2e6"/><stop offset="1" stop-color="#8fa1bb"/></linearGradient><linearGradient id="linear-gradient-2" x1="24.62" y1="-28.5" x2="24.62" y2="35.38" xlink:href="#linear-gradient"/><linearGradient id="linear-gradient-3" x1="24.62" y1="52.56" x2="24.62" y2="18.34" gradientUnits="userSpaceOnUse"><stop offset="0" stop-color="#27e9de"/><stop offset="0.52" stop-color="#03a4ec"/><stop offset="1" stop-color="#2547a8"/></linearGradient><linearGradient id="linear-gradient-4" x1="24.62" y1="39.94" x2="24.62" y2="12.67" xlink:href="#linear-gradient-3"/></defs><title>dental, tooth, root, teeth, dentist</title><g id="ART"><path class="cls-1" d="M33.63,3.5a11.31,11.31,0,0,0-8.37,3.83.86.86,0,0,1-1.26,0A11.31,11.31,0,0,0,15.63,3.5c-6.63,0-12,6-12,13.46A14.7,14.7,0,0,0,5.7,24.54,18.7,18.7,0,0,1,8.39,32a37.83,37.83,0,0,0,3.43,11.87,2.89,2.89,0,0,0,2.32,1.67,2.77,2.77,0,0,0,3-2.76v-1a7.79,7.79,0,0,1,3.59-6.69,7.5,7.5,0,0,1,7.81,0,7.79,7.79,0,0,1,3.59,6.69v.69a2.92,2.92,0,0,0,2.15,3,2.77,2.77,0,0,0,3.1-1.49,37.83,37.83,0,0,0,3.5-12.13,15.15,15.15,0,0,1,2.34-6.73A14.63,14.63,0,0,0,45.63,17C45.63,9.52,40.25,3.5,33.63,3.5Z"/><path class="cls-2" d="M45.55,15.51c0-.16,0-.32-.07-.48s-.07-.58-.13-.87C44.21,8.07,39.4,3.5,33.63,3.5a11.21,11.21,0,0,0-7.87,3.31,1.6,1.6,0,0,1-2.26,0A11.21,11.21,0,0,0,15.63,3.5C9.85,3.5,5,8.07,3.89,14.16c-.05.29-.09.58-.13.87s-.05.32-.07.48c0,.48-.07,1-.07,1.47,0,0,0,.08,0,.13,0,.38,0,.75.05,1.12,0,.22,0,.43.07.64v-.09c0-.29.07-.58.13-.87a13.89,13.89,0,0,1,3.66-7.14,1.28,1.28,0,0,0,.89.36,1.27,1.27,0,0,0,1.06-.59,2.19,2.19,0,0,0,3.12-1.87,1.5,1.5,0,0,0,1.82-1.35,10.81,10.81,0,0,1,1.18-.07A11.31,11.31,0,0,1,24,11.08a.86.86,0,0,0,1.26,0,11.31,11.31,0,0,1,8.37-3.83c5.77,0,10.59,4.57,11.74,10.66.05.29.09.58.13.87v.07c0-.2,0-.4.07-.6,0-.36,0-.73.05-1.1,0-.06,0-.11,0-.16C45.62,16.48,45.6,16,45.55,15.51Z"/><path class="cls-3" d="M38,23.46a6,6,0,0,0-11.2-1.77A2.5,2.5,0,0,1,24.63,23h0a2.5,2.5,0,0,1-2.21-1.32,6,6,0,0,0-11.2,1.77,6.08,6.08,0,0,0,.13,2.65,21.86,21.86,0,0,1,.84,5.9,23.26,23.26,0,0,0,1.15,7.31l.25.76a.44.44,0,0,0,.85-.06l.63-3.41a10.26,10.26,0,0,1,2.79-5.35h0a2.58,2.58,0,0,1,1.84-.77h9.88a2.58,2.58,0,0,1,1.84.77h0a10.26,10.26,0,0,1,2.79,5.35L34.82,40a.44.44,0,0,0,.85.06l.25-.76A23.26,23.26,0,0,0,37.07,32a21.86,21.86,0,0,1,.84-5.9A6.08,6.08,0,0,0,38,23.46Z"/><path class="cls-4" d="M33.2,18.59a6,6,0,0,0-6.36,3.09,2.51,2.51,0,0,1-4.42,0,6,6,0,0,0-11.22,1.91,6.07,6.07,0,0,0,.15,2.52h0a2.89,2.89,0,0,0,1.38,1.79,25.4,25.4,0,0,0,11.42,2.58h1a25.4,25.4,0,0,0,11.42-2.58,2.89,2.89,0,0,0,1.38-1.79h0a6.07,6.07,0,0,0,.15-2.52A6,6,0,0,0,33.2,18.59Z"/></g></svg>